<svg xmlns="http://www.w3.org/2000/svg" width="146" height="30" viewBox="0 0 146 30" fill="none"><g clip-path="url(#clip0_1073_19105)"><path d="M29.4322 7.58925H0.00292969V0H31.7658L29.894 6.08053L29.4322 7.58925Z" fill="url(#paint0_linear_1073_19105)"></path><path d="M22.4779 19.297H0.00292969V11.7051H24.8115L22.4779 19.297Z" fill="url(#paint1_linear_1073_19105)"></path><path d="M2.33626 30.0002H12.4493L17.6821 22.7223C17.6903 22.7143 17.6958 22.7089 17.704 22.7008L17.9117 22.4082H0.00268555L1.73238 28.0324C1.7351 28.0378 1.7351 28.0431 1.74057 28.0485L2.33626 30.0002Z" fill="url(#paint2_linear_1073_19105)"></path><path d="M17.0318 7.58887L24.8113 11.7043H7.36417L0 7.58887H17.0318Z" fill="url(#paint3_linear_1073_19105)"></path><path d="M17.9119 22.4056L11.7473 19.2969H0.00292969L5.25757 22.4056H17.9119Z" fill="url(#paint4_linear_1073_19105)"></path><path d="M68.0055 12.6V24.0255H63.9256V22.7691C63.207 23.6577 61.696 24.0255 59.8734 24.0255C56.3102 24.0255 53.3726 21.3248 53.3726 17.3436C53.3726 13.3624 56.3102 10.2886 59.8734 10.2886C61.696 10.2886 63.0296 10.9033 63.9256 11.9181V10.2617L68.0055 12.6ZM63.9256 17.3463C63.9256 15.3409 62.5648 14.0846 60.6878 14.0846C58.8103 14.0846 57.4496 15.3409 57.4496 17.3463C57.4496 19.3517 58.8103 20.608 60.6878 20.608C62.5648 20.608 63.9256 19.349 63.9256 17.3463Z" fill="#001C71"></path><path d="M72.085 6.50024C72.085 5.40224 73.0197 4.48145 74.1399 4.48145C75.2602 4.48145 76.1949 5.39957 76.1949 6.50024C76.1949 7.59824 75.2602 8.519 74.1399 8.519C73.0197 8.519 72.085 7.60091 72.085 6.50024ZM72.1122 10.2372H76.192V24.0009H72.1122V10.2372Z" fill="#001C71"></path><path d="M88.2834 10.2377V14.78C86.5977 14.5115 84.3543 15.3142 84.3543 17.9612V24.0015H80.2744V10.2377H84.3543V11.8645C85.1301 10.0525 87.0209 10.2189 88.2834 10.2377Z" fill="#001C71"></path><path d="M92.5156 0.662109L96.5955 2.91446V24.0285H92.5156V0.662109Z" fill="#001C71"></path><path d="M113.616 10.2002L108.966 23.5639C107.444 27.8136 103.009 29.5103 99.1997 29.325V25.5827C101.104 25.5827 104.014 24.9814 104.613 23.3519L99.1997 10.2029H103.162L106.709 18.7827L109.657 10.2029H113.616V10.2002Z" fill="#001C71"></path><path d="M129.465 15.8215V24.0255H125.386V16.4094C125.386 14.753 124.326 13.9772 123.019 13.9772C121.522 13.9772 120.489 14.8335 120.489 16.7288V24.0255H116.409V10.2617H120.489V11.9181C121.413 10.651 123.047 10.2591 124.413 10.2617L128.678 12.6859C129.209 13.255 129.465 14.5329 129.465 15.8215Z" fill="#001C71"></path><path d="M139.581 20.5378C140.048 20.5378 141.026 20.3579 141.496 19.9659L144.956 21.9338C143.559 23.4371 141.515 24.0223 139.526 24.0223C134.998 24.0223 132.192 21.0317 132.192 17.1552C132.192 13.2787 135.053 10.2881 139.237 10.2881C143.103 10.2881 145.961 13.2277 145.961 17.1552C145.961 17.7002 145.909 18.221 145.803 18.7149H136.403C136.908 20.0707 138.124 20.5378 139.581 20.5378ZM142.018 15.8049C141.595 14.2961 140.403 13.7485 139.212 13.7485C137.704 13.7485 136.695 14.476 136.327 15.8049H142.018Z" fill="#001C71"></path><path d="M42.2622 23.8992V7.14757C42.2622 3.56636 45.8774 0.774414 49.2768 0.774414C50.9897 0.774414 53.132 1.40529 54.6326 3.14757L52.1405 5.63618C51.4382 4.61871 50.0336 4.21871 49.3012 4.21871C47.875 4.21871 46.3391 5.4536 46.3391 7.15024V10.4254H51.3094L49.4214 14.369H46.3391V23.902H42.2622V23.8992Z" fill="#001C71"></path></g><defs><linearGradient id="paint0_linear_1073_19105" x1="29.9924" y1="3.79565" x2="0.531182" y2="3.79565" gradientUnits="userSpaceOnUse"><stop stop-color="#B07BF6"></stop><stop offset="1" stop-color="#5B42FF"></stop></linearGradient><linearGradient id="paint1_linear_1073_19105" x1="23.8643" y1="15.5023" x2="0.382094" y2="15.5023" gradientUnits="userSpaceOnUse"><stop stop-color="#94FFE5"></stop><stop offset="1" stop-color="#6BEAE4"></stop></linearGradient><linearGradient id="paint2_linear_1073_19105" x1="1.26585" y1="26.2028" x2="15.7851" y2="26.2028" gradientUnits="userSpaceOnUse"><stop stop-color="#94FFE5"></stop><stop offset="1" stop-color="#6BEAE4"></stop></linearGradient><linearGradient id="paint3_linear_1073_19105" x1="0.728492" y1="7.36218" x2="22.2738" y2="11.8103" gradientUnits="userSpaceOnUse"><stop stop-color="#52CEF2"></stop><stop offset="1" stop-color="#31ADF9"></stop></linearGradient><linearGradient id="paint4_linear_1073_19105" x1="0.649009" y1="19.4712" x2="17.2672" y2="22.4993" gradientUnits="userSpaceOnUse"><stop stop-color="#52CEF2"></stop><stop offset="1" stop-color="#31ADF9"></stop></linearGradient><clipPath id="clip0_1073_19105"><rect width="146" height="30" fill="white"></rect></clipPath></defs></svg>